<svg width="20" height="16" viewBox="0 0 20 16" fill="none" xmlns="http://www.w3.org/2000/svg">
<path d="M9.62451 4.25L8.93701 4.84375C8.96826 5.0625 8.96826 5.28125 8.96826 5.5C8.96826 5.71875 8.96826 5.9375 8.93701 6.15625L9.62451 6.78125C9.84326 6.96875 9.93701 7.28125 9.81201 7.5625C9.74951 7.71875 9.65576 7.90625 9.56201 8.0625L9.46826 8.21875C9.37451 8.375 9.28076 8.53125 9.18701 8.6875C8.99951 8.90625 8.68701 9 8.40576 8.90625L7.53076 8.59375C7.18701 8.875 6.81201 9.09375 6.37451 9.25L6.18701 10.1562C6.12451 10.4688 5.90576 10.6875 5.62451 10.7188C5.40576 10.75 5.18701 10.75 4.96826 10.75C4.78076 10.75 4.56201 10.75 4.34326 10.7188C4.06201 10.6875 3.81201 10.4688 3.78076 10.1562L3.56201 9.25C3.15576 9.09375 2.78076 8.875 2.43701 8.59375L1.56201 8.90625C1.28076 9 0.968262 8.90625 0.780762 8.6875C0.687012 8.53125 0.562012 8.375 0.468262 8.21875L0.374512 8.0625C0.312012 7.90625 0.218262 7.71875 0.155762 7.5625C0.0307617 7.28125 0.124512 6.96875 0.343262 6.78125L1.03076 6.15625C0.999512 5.96875 0.999512 5.75 0.999512 5.5C0.999512 5.28125 0.999512 5.0625 1.03076 4.875L0.343262 4.25C0.124512 4.03125 0.0307617 3.75 0.155762 3.46875C0.218262 3.28125 0.312012 3.125 0.374512 2.96875L0.468262 2.8125C0.593262 2.65625 0.687012 2.5 0.780762 2.34375C0.968262 2.125 1.28076 2.03125 1.56201 2.125L2.43701 2.40625C2.78076 2.15625 3.15576 1.9375 3.59326 1.78125L3.78076 0.84375C3.84326 0.5625 4.06201 0.34375 4.34326 0.3125C4.56201 0.28125 4.78076 0.25 4.99951 0.25C5.18701 0.25 5.40576 0.28125 5.62451 0.3125C5.90576 0.34375 6.15576 0.5625 6.21826 0.875L6.40576 1.78125C6.81201 1.90625 7.18701 2.15625 7.53076 2.40625L8.40576 2.125C8.68701 2.03125 8.99951 2.125 9.18701 2.34375C9.28076 2.5 9.40576 2.65625 9.49951 2.8125L9.59326 2.96875C9.65576 3.125 9.74951 3.28125 9.81201 3.46875C9.93701 3.75 9.84326 4.03125 9.62451 4.25ZM6.49951 5.5C6.49951 4.6875 5.81201 4 4.99951 4C4.15576 4 3.49951 4.6875 3.49951 5.5C3.49951 6.34375 4.15576 7 4.99951 7C5.81201 7 6.49951 6.34375 6.49951 5.5ZM15.7495 15.6562L15.1558 14.9688C14.937 15 14.7183 15 14.4995 15C14.2808 15 14.062 15 13.8433 14.9688L13.2183 15.6562C13.0308 15.875 12.7183 15.9688 12.437 15.8438C12.2808 15.7812 12.0933 15.6875 11.937 15.5938L11.7808 15.5C11.6245 15.4062 11.4683 15.3125 11.312 15.1875C11.0933 15.0312 10.9995 14.7188 11.0933 14.4375L11.4058 13.5625C11.1245 13.2188 10.9058 12.8438 10.7495 12.4062L9.84326 12.2188C9.53076 12.1562 9.31201 11.9375 9.28076 11.6562C9.24951 11.4375 9.24951 11.2188 9.24951 11C9.24951 10.7812 9.24951 10.5938 9.28076 10.375C9.31201 10.0938 9.53076 9.84375 9.84326 9.78125L10.7495 9.59375C10.9058 9.1875 11.1245 8.8125 11.4058 8.46875L11.0933 7.59375C10.9995 7.3125 11.0933 7 11.312 6.8125C11.4683 6.71875 11.6245 6.59375 11.7808 6.5L11.937 6.40625C12.0933 6.34375 12.2808 6.25 12.437 6.1875C12.7183 6.0625 13.0308 6.15625 13.2183 6.375L13.8433 7.0625C14.0308 7.03125 14.2495 7.03125 14.4995 7.03125C14.7183 7.03125 14.937 7.03125 15.1245 7.0625L15.7495 6.375C15.9683 6.15625 16.2808 6.0625 16.5308 6.1875C16.7183 6.25 16.8745 6.34375 17.0308 6.40625L17.187 6.5C17.3433 6.625 17.4995 6.71875 17.6558 6.8125C17.8745 7 17.9683 7.3125 17.8745 7.59375L17.5933 8.46875C17.8433 8.8125 18.062 9.1875 18.2183 9.59375L19.1558 9.8125C19.437 9.875 19.6558 10.0938 19.687 10.375C19.7183 10.5938 19.7495 10.8125 19.7495 11.0312C19.7495 11.2188 19.7183 11.4375 19.687 11.6562C19.6558 11.9375 19.437 12.1875 19.1558 12.2188L18.2183 12.4375C18.0933 12.8438 17.8433 13.2188 17.5933 13.5625L17.8745 14.4375C17.9683 14.7188 17.8745 15.0312 17.6558 15.2188C17.4995 15.3125 17.3433 15.4062 17.187 15.5L17.0308 15.625C16.8745 15.6875 16.7183 15.7812 16.5308 15.8438C16.2495 15.9688 15.9683 15.875 15.7495 15.6562ZM14.4995 12.5C15.312 12.5 15.9995 11.8438 15.9995 11C15.9995 10.1875 15.312 9.5 14.4995 9.5C13.6558 9.5 12.9995 10.1875 12.9995 11C12.9995 11.8438 13.6558 12.5 14.4995 12.5Z" fill="#333333"/>
</svg>
