<svg width="20" height="20" viewBox="0 0 20 20" fill="none" xmlns="http://www.w3.org/2000/svg">
<path d="M6.66683 18.3333C7.12707 18.3333 7.50016 17.9602 7.50016 17.5C7.50016 17.0398 7.12707 16.6667 6.66683 16.6667C6.20659 16.6667 5.8335 17.0398 5.8335 17.5C5.8335 17.9602 6.20659 18.3333 6.66683 18.3333Z" stroke="#333333" stroke-width="2" stroke-linecap="round" stroke-linejoin="round"/>
<path d="M15.8333 18.3333C16.2936 18.3333 16.6667 17.9602 16.6667 17.5C16.6667 17.0398 16.2936 16.6667 15.8333 16.6667C15.3731 16.6667 15 17.0398 15 17.5C15 17.9602 15.3731 18.3333 15.8333 18.3333Z" stroke="#333333" stroke-width="2" stroke-linecap="round" stroke-linejoin="round"/>
<path d="M1.7085 1.70834H3.37516L5.59183 12.0583C5.67314 12.4374 5.88405 12.7762 6.18826 13.0166C6.49246 13.2569 6.87092 13.3836 7.2585 13.375H15.4085C15.7878 13.3744 16.1556 13.2444 16.451 13.0065C16.7465 12.7687 16.9519 12.4371 17.0335 12.0667L18.4085 5.875H4.26683" stroke="#333333" stroke-width="2" stroke-linecap="round" stroke-linejoin="round"/>
</svg>
