<svg width="20" height="20" viewBox="0 0 20 20" fill="none" xmlns="http://www.w3.org/2000/svg">
<path d="M10.0026 12.5L12.5026 9.99999M12.5026 9.99999L10.0026 7.49999M12.5026 9.99999H3.33594M7.5026 6.04048V6.00016C7.5026 5.06674 7.5026 4.59968 7.68426 4.24316C7.84405 3.92956 8.09883 3.67477 8.41243 3.51498C8.76895 3.33333 9.23601 3.33333 10.1694 3.33333H14.0028C14.9362 3.33333 15.4022 3.33333 15.7588 3.51498C16.0724 3.67477 16.328 3.92956 16.4878 4.24316C16.6693 4.59933 16.6693 5.06582 16.6693 5.99742V14.003C16.6693 14.9346 16.6693 15.4004 16.4878 15.7566C16.328 16.0702 16.0724 16.3254 15.7588 16.4852C15.4026 16.6667 14.9368 16.6667 14.0052 16.6667H10.1667C9.2351 16.6667 8.76861 16.6667 8.41243 16.4852C8.09883 16.3254 7.84405 16.0699 7.68426 15.7563C7.5026 15.3998 7.5026 14.9334 7.5026 14V13.9583" stroke="#333333" stroke-width="2" stroke-linecap="round" stroke-linejoin="round"/>
</svg>
