<svg width="21" height="20" viewBox="0 0 21 20" fill="none" xmlns="http://www.w3.org/2000/svg">
<path d="M12.5996 17.5V10.8333C12.5996 10.6123 12.5118 10.4004 12.3555 10.2441C12.1993 10.0878 11.9873 10 11.7663 10H8.43294C8.21193 10 7.99997 10.0878 7.84369 10.2441C7.68741 10.4004 7.59961 10.6123 7.59961 10.8333V17.5" stroke="#333333" stroke-width="2" stroke-linecap="round" stroke-linejoin="round"/>
<path d="M2.59961 8.33322C2.59955 8.09078 2.65239 7.85124 2.75443 7.63132C2.85648 7.4114 3.00527 7.21639 3.19044 7.05989L9.02378 2.06073C9.3246 1.80648 9.70574 1.66699 10.0996 1.66699C10.4935 1.66699 10.8746 1.80648 11.1754 2.06073L17.0088 7.05989C17.1939 7.21639 17.3427 7.4114 17.4448 7.63132C17.5468 7.85124 17.5997 8.09078 17.5996 8.33322V15.8332C17.5996 16.2753 17.424 16.6992 17.1115 17.0117C16.7989 17.3243 16.375 17.4999 15.9329 17.4999H4.26628C3.82425 17.4999 3.40033 17.3243 3.08776 17.0117C2.7752 16.6992 2.59961 16.2753 2.59961 15.8332V8.33322Z" stroke="#333333" stroke-width="2" stroke-linecap="round" stroke-linejoin="round"/>
</svg>
