<svg width="16" height="16" viewBox="0 0 16 16" fill="none" xmlns="http://www.w3.org/2000/svg">
<path d="M13.3332 6.66667C13.3332 9.99533 9.6405 13.462 8.4005 14.5327C8.28499 14.6195 8.14437 14.6665 7.99984 14.6665C7.8553 14.6665 7.71469 14.6195 7.59917 14.5327C6.35917 13.462 2.6665 9.99533 2.6665 6.66667C2.6665 5.25218 3.22841 3.89562 4.2286 2.89543C5.22879 1.89524 6.58535 1.33333 7.99984 1.33333C9.41432 1.33333 10.7709 1.89524 11.7711 2.89543C12.7713 3.89562 13.3332 5.25218 13.3332 6.66667Z" stroke="white" stroke-width="1.5" stroke-linecap="round" stroke-linejoin="round"/>
<path d="M8 8.66667C9.10457 8.66667 10 7.77124 10 6.66667C10 5.5621 9.10457 4.66667 8 4.66667C6.89543 4.66667 6 5.5621 6 6.66667C6 7.77124 6.89543 8.66667 8 8.66667Z" stroke="white" stroke-width="1.5" stroke-linecap="round" stroke-linejoin="round"/>
</svg>
