<svg width="21" height="20" viewBox="0 0 21 20" fill="none" xmlns="http://www.w3.org/2000/svg">
<path d="M7.08268 16.6667C8.67316 17.4826 10.5028 17.7036 12.2418 17.2898C13.9808 16.8761 15.5148 15.8549 16.5675 14.4102C17.6201 12.9655 18.1222 11.1923 17.9832 9.41015C17.8441 7.62803 17.0732 5.95416 15.8092 4.69018C14.5452 3.4262 12.8713 2.65523 11.0892 2.5162C9.30709 2.37717 7.53391 2.87922 6.0892 3.93189C4.64449 4.98456 3.62326 6.51861 3.20953 8.25761C2.79581 9.99661 3.0168 11.8262 3.83268 13.4167L2.16602 18.3334L7.08268 16.6667Z" stroke="#671252" stroke-width="2" stroke-linecap="round" stroke-linejoin="round"/>
<path d="M8.07422 7.49999C8.27014 6.94304 8.65685 6.47341 9.16585 6.17426C9.67485 5.87512 10.2733 5.76577 10.8552 5.86558C11.4371 5.96539 11.9649 6.26792 12.3451 6.71959C12.7253 7.17126 12.9334 7.74292 12.9326 8.33332C12.9326 9.99999 10.4326 10.8333 10.4326 10.8333" stroke="#671252" stroke-width="2" stroke-linecap="round" stroke-linejoin="round"/>
<path d="M10.5 14.1667H10.5083" stroke="#671252" stroke-width="2" stroke-linecap="round" stroke-linejoin="round"/>
</svg>
