<svg width="20" height="20" viewBox="0 0 20 20" fill="none" xmlns="http://www.w3.org/2000/svg">
<g clip-path="url(#clip0_77_7195)">
<path d="M15 16.6667C15 15.3406 14.4732 14.0688 13.5355 13.1312C12.5979 12.1935 11.3261 11.6667 10 11.6667C8.67392 11.6667 7.40215 12.1935 6.46447 13.1312C5.52678 14.0688 5 15.3406 5 16.6667" stroke="#333333" stroke-width="2" stroke-linecap="round" stroke-linejoin="round"/>
<path d="M9.99984 11.6667C11.8408 11.6667 13.3332 10.1743 13.3332 8.33333C13.3332 6.49238 11.8408 5 9.99984 5C8.15889 5 6.6665 6.49238 6.6665 8.33333C6.6665 10.1743 8.15889 11.6667 9.99984 11.6667Z" stroke="#333333" stroke-width="2" stroke-linecap="round" stroke-linejoin="round"/>
<path d="M9.99984 18.3334C14.6022 18.3334 18.3332 14.6024 18.3332 10C18.3332 5.39765 14.6022 1.66669 9.99984 1.66669C5.39746 1.66669 1.6665 5.39765 1.6665 10C1.6665 14.6024 5.39746 18.3334 9.99984 18.3334Z" stroke="#333333" stroke-width="2" stroke-linecap="round" stroke-linejoin="round"/>
</g>
<defs>
<clipPath id="clip0_77_7195">
<rect width="20" height="20" fill="white"/>
</clipPath>
</defs>
</svg>
