<svg width="57" height="56" viewBox="0 0 57 56" fill="none" xmlns="http://www.w3.org/2000/svg">
<g clip-path="url(#clip0_115_8857)">
<path fill-rule="evenodd" clip-rule="evenodd" d="M22.8438 0H34.6562V4.8125L35.2906 4.97656C35.6297 5.075 36.4062 5.32656 37.0078 5.53437C37.6094 5.75312 38.7469 6.24531 40.9453 7.33906L42.5969 5.69844C43.5156 4.79062 44.3031 4.04688 44.3469 4.04688C44.4016 4.04688 46.3156 5.91719 52.7578 12.3594L51.2812 13.8578C50.4719 14.6781 49.7172 15.4219 49.6078 15.4984C49.5094 15.575 49.4219 15.6844 49.4219 15.75C49.4219 15.8156 49.7609 16.5375 50.1656 17.3687C50.5703 18.1891 51.0625 19.3156 51.2594 19.8516C51.4453 20.3875 51.675 21.1203 51.9375 22.0938H56.75V33.9062H51.9375L51.7078 34.7047C51.5875 35.1312 51.3578 35.8641 51.1938 36.3125C51.0406 36.7609 50.5703 37.8219 49.4 40.1953L51.0516 41.8359C51.9594 42.7438 52.7031 43.5203 52.7031 43.5859C52.7031 43.6516 50.8328 45.5656 44.3906 52.0078L43.8328 51.4609C43.5156 51.1656 42.75 50.4 41 48.6172L39.2719 49.4594C38.3313 49.9188 37.1063 50.4437 36.5703 50.6297C36.0344 50.8047 35.3781 51.0016 34.6562 51.1875V56H22.8438V51.1875L22.0453 50.9578C21.6187 50.8375 20.7875 50.5641 20.2188 50.3453C19.65 50.1266 18.6109 49.6672 17.9219 49.3172C17.2328 48.9672 16.6203 48.6719 16.5547 48.6719C16.4891 48.6719 15.9531 49.175 15.3406 49.7984C14.7391 50.4109 13.9844 51.1656 13.1094 52.0078L8.95312 47.8516C6.66719 45.5656 4.79688 43.6516 4.79688 43.5859C4.79688 43.5203 5.54062 42.7438 8.1 40.1953L7.34531 38.6641C6.92969 37.8219 6.4375 36.6844 6.24062 36.1484C6.05469 35.6125 5.825 34.8797 5.5625 33.9062H0.75V22.0938H5.5625L5.72656 21.4703C5.825 21.1203 6.05469 20.3875 6.24062 19.8516C6.4375 19.3156 6.92969 18.1891 7.33437 17.3687C7.73906 16.5375 8.07812 15.8156 8.07812 15.75C8.07812 15.6844 7.99062 15.575 7.88125 15.4984C7.78281 15.4219 7.02812 14.6781 4.74219 12.3594L8.89844 8.20312C11.1844 5.91719 13.0984 4.04688 13.1641 4.04688C13.2188 4.04688 14.0063 4.79062 16.5547 7.35L17.8672 6.69375C18.5891 6.33281 19.7156 5.84062 20.3828 5.58906C21.05 5.34844 21.8703 5.075 22.8438 4.8125V0ZM26.0703 7.48125C24.9656 7.7 24.2984 7.84219 23.8828 7.94062C23.4562 8.03906 22.6688 8.26875 22.1328 8.44375C21.5969 8.61875 20.5031 9.07812 19.7266 9.46094C18.9391 9.84375 17.8125 10.4781 17.2109 10.8719L16.1172 11.5828L13.1641 8.64062L9.39062 12.4141L12.3328 15.3672C11.2391 17.0625 10.6703 18.025 10.375 18.5938C10.0797 19.1625 9.675 20.0812 9.46719 20.6172C9.24844 21.1531 8.99687 21.9188 8.8875 22.3125C8.78906 22.7062 8.59219 23.5375 8.47187 24.1719L8.23125 25.3203L4.03125 25.375V30.625L8.23125 30.6797C8.59219 32.4625 8.78906 33.2938 8.8875 33.6875C8.99687 34.0812 9.24844 34.8469 9.46719 35.3828C9.675 35.9188 10.0797 36.8375 10.375 37.4062C10.6703 37.975 11.2391 38.9375 11.6219 39.5391L12.3328 40.6328L9.39062 43.5859L13.1641 47.3594L16.1172 44.4172C17.8125 45.5219 18.9391 46.1562 19.7266 46.5391C20.5031 46.9219 21.5969 47.3812 22.1328 47.5562C22.6688 47.7312 23.4562 47.9609 23.8828 48.0594C24.2984 48.1578 24.9656 48.3 25.3594 48.3766L26.0703 48.5187L26.125 52.7188H31.375L31.4297 48.5187C33.6281 48.0703 34.7438 47.775 35.3125 47.5891C35.8812 47.4031 36.9969 46.9328 37.7734 46.5391C38.55 46.1562 39.6875 45.5219 40.2891 45.1281L41.3828 44.4172L44.3359 47.3594L48.1094 43.5859L45.1672 40.6328C46.2609 38.9375 46.8297 37.975 47.125 37.4062C47.4203 36.8375 47.825 35.9188 48.0328 35.3828C48.2516 34.8469 48.5031 34.0812 48.6125 33.6875C48.7109 33.2938 48.9078 32.4625 49.0281 31.8281L49.2687 30.6797L53.4688 30.625V25.375L49.2687 25.3203C48.9078 23.5375 48.7109 22.7062 48.6125 22.3125C48.5031 21.9188 48.2516 21.1531 48.0328 20.6172C47.825 20.0812 47.4203 19.1625 47.125 18.5938C46.8297 18.025 46.2609 17.0625 45.8781 16.4609L45.1672 15.3672L48.1094 12.4141L44.3359 8.64062L41.3828 11.5828C39.6875 10.4781 38.55 9.84375 37.7734 9.46094C36.9969 9.06719 35.8812 8.59688 35.3125 8.41094C34.7438 8.225 33.6281 7.92969 32.8516 7.77656L31.4297 7.48125L31.3859 3.28125H26.125L26.0703 7.48125ZM29.1875 10.8828C30.5547 10.9156 31.4078 10.9922 32.1406 11.1453C32.7203 11.2656 33.5734 11.4953 34.0547 11.6484C34.5359 11.8016 35.575 12.2391 36.3516 12.6328C37.1391 13.0156 38.2437 13.6719 38.8016 14.0766C39.3703 14.4812 40.3109 15.2906 40.8797 15.8703C41.4594 16.45 42.2687 17.3797 42.6734 17.9484C43.0672 18.5172 43.6688 19.4906 43.9969 20.125C44.325 20.7594 44.7734 21.7875 44.9922 22.4219C45.2109 23.0562 45.4953 24.0625 45.6266 24.6641C45.8234 25.5828 45.8563 26.1187 45.8563 28C45.8563 29.8813 45.8234 30.4172 45.6266 31.3359C45.4953 31.9375 45.2109 32.9437 44.9922 33.5781C44.7734 34.2125 44.325 35.2406 43.9969 35.875C43.6688 36.5094 43.0672 37.4828 42.6734 38.0516C42.2687 38.6203 41.4594 39.55 40.8797 40.1297C40.3109 40.7094 39.3703 41.5078 38.8016 41.9234C38.2437 42.3281 37.1391 42.9734 36.3516 43.3672C35.575 43.75 34.5359 44.1875 34.0547 44.3516C33.5734 44.5047 32.6875 44.7344 32.0859 44.8656C31.1781 45.0625 30.6203 45.1063 28.8047 45.1063C26.9672 45.1172 26.4422 45.0734 25.4688 44.8766C24.8453 44.7453 23.8062 44.45 23.1719 44.2313C22.5484 44.0125 21.5094 43.575 20.875 43.2469C20.2516 42.9188 19.2891 42.3281 18.7422 41.9453C18.2062 41.5625 17.2656 40.7531 16.6641 40.1625C16.0625 39.5719 15.2422 38.6203 14.8375 38.0516C14.4328 37.4828 13.8422 36.5094 13.5141 35.875C13.1859 35.2406 12.7375 34.2125 12.5188 33.5781C12.3 32.9437 12.0156 31.9375 11.8844 31.3359C11.6875 30.4172 11.6438 29.8813 11.6438 28C11.6438 26.1187 11.6875 25.5828 11.8844 24.6641C12.0156 24.0625 12.3 23.0562 12.5188 22.4219C12.7375 21.7875 13.1859 20.7594 13.5141 20.125C13.8422 19.4906 14.4328 18.5172 14.8375 17.9484C15.2422 17.3797 16.0516 16.45 16.6203 15.8703C17.2 15.2906 18.1406 14.4922 18.6984 14.0875C19.2672 13.6828 20.2516 13.0813 20.875 12.7531C21.5094 12.425 22.5156 11.9875 23.1172 11.7797C23.7188 11.5719 24.5828 11.3203 25.0312 11.2219C25.4906 11.1234 26.1797 10.9922 26.5625 10.9375C26.9562 10.8828 28.1375 10.8609 29.1875 10.8828ZM25.9609 14.3938C25.4797 14.4922 24.6922 14.7 24.2109 14.8641C23.7297 15.0391 23.0187 15.3344 22.625 15.5312C22.2422 15.7172 21.4984 16.1547 20.9953 16.4937C20.4813 16.8438 19.6391 17.5109 19.1359 18.0031C18.6219 18.4953 17.8891 19.3266 17.5063 19.8625C17.1234 20.3984 16.5984 21.2516 16.3469 21.7656C16.0844 22.2797 15.7562 23.0672 15.5922 23.5156C15.4391 23.9641 15.2312 24.7516 15.1219 25.2656C14.9687 25.9547 14.9141 26.6656 14.9141 28C14.9141 29.2906 14.9688 30.0562 15.1109 30.6797C15.2094 31.1609 15.4281 31.9484 15.5813 32.4297C15.7453 32.9109 16.0844 33.7203 16.3469 34.2344C16.5984 34.7484 17.0688 35.5359 17.3969 35.9844C17.7141 36.4328 18.3156 37.1656 18.7422 37.6141C19.1688 38.0516 19.9344 38.7297 20.4375 39.1125C20.9516 39.5063 21.8375 40.0531 22.4062 40.3484C22.9859 40.6328 23.8391 41.0047 24.3203 41.1688C24.8016 41.3219 25.5453 41.5297 25.9609 41.6172C26.3875 41.7047 26.8141 41.7812 26.9234 41.7812C27.0984 41.7812 27.1094 41.5516 27.0875 38.325L27.0547 34.8687C26.125 34.5734 25.5891 34.3547 25.25 34.1906C24.9219 34.0266 24.4078 33.7094 24.1125 33.4797C23.8172 33.2609 23.325 32.8016 23.0188 32.4625C22.7125 32.1234 22.3078 31.5875 22.1109 31.2594C21.9141 30.9422 21.6297 30.3297 21.4875 29.9141C21.3344 29.4875 21.1703 28.7984 21.1047 28.3828C21.0391 27.9562 20.9953 26.6656 20.9953 25.5063L20.9844 23.4062H23.8281V18.2656H27.1094V23.4062H30.3906V18.2656H33.6719V23.4062H36.5156C36.45 28.0875 36.3953 28.8641 36.2641 29.3672C36.1656 29.7281 35.8703 30.4391 35.6187 30.9531C35.2578 31.675 34.9625 32.0797 34.2844 32.7578C33.8031 33.2391 33.0812 33.8188 32.6875 34.0375C32.3047 34.2672 31.6266 34.5625 31.1891 34.6938L30.3906 34.9453C30.3906 41.5406 30.4125 41.7812 30.5875 41.7812C30.6969 41.7812 31.1234 41.7047 31.5391 41.6172C31.9656 41.5297 32.6984 41.3219 33.1797 41.1688C33.6609 41.0047 34.525 40.6328 35.0938 40.3484C35.6734 40.0531 36.5594 39.5063 37.0625 39.1125C37.5766 38.7297 38.3859 38.0078 38.8563 37.5047C39.3375 37.0016 39.9828 36.1922 40.3 35.7109C40.6172 35.2297 41.0766 34.4203 41.3172 33.9062C41.5578 33.3922 41.8531 32.6594 41.9844 32.2656C42.1047 31.8719 42.2906 31.2047 42.3781 30.7891C42.4766 30.3625 42.575 29.3344 42.6078 28.4922C42.6516 27.3656 42.6188 26.6766 42.4875 25.8891C42.4 25.3094 42.1594 24.3469 41.9734 23.7563C41.7875 23.1766 41.4266 22.2797 41.1641 21.7656C40.9125 21.2516 40.4312 20.4641 40.1141 20.0156C39.7969 19.5672 39.1844 18.8344 38.7687 18.3859C38.3422 17.9484 37.5766 17.2703 37.0625 16.8766C36.5594 16.4937 35.6734 15.9469 35.0938 15.6516C34.525 15.3563 33.6937 14.9953 33.2344 14.8422C32.7859 14.6891 32.0531 14.4812 31.5938 14.3828C31.1016 14.2734 30.1063 14.1859 29.0781 14.1641C28.1484 14.1422 27.2625 14.1422 27.1094 14.175C26.9672 14.1969 26.4422 14.3063 25.9609 14.3938ZM24.3094 27.5078C24.3422 27.9562 24.4734 28.5906 24.5938 28.8969C24.7141 29.2141 24.9984 29.7172 25.2281 30.0125C25.4578 30.3078 25.8844 30.7125 26.1797 30.9203C26.4859 31.1281 26.9891 31.3906 27.3062 31.5C27.7 31.6531 28.1594 31.7188 28.7828 31.7188C29.275 31.7188 29.9422 31.6422 30.2594 31.5547C30.5984 31.4562 31.1125 31.1719 31.5063 30.8656C31.9 30.5594 32.3156 30.1109 32.5344 29.75C32.7422 29.4219 32.9828 28.8531 33.0703 28.4922C33.1688 28.1313 33.2453 27.5734 33.2344 27.2563V26.6875H24.2328L24.3094 27.5078Z" fill="#671252"/>
</g>
<defs>
<clipPath id="clip0_115_8857">
<rect width="56" height="56" fill="white" transform="translate(0.75)"/>
</clipPath>
</defs>
</svg>
