<svg width="20" height="20" viewBox="0 0 20 20" fill="none" xmlns="http://www.w3.org/2000/svg">
<g clip-path="url(#clip0_81_8738)">
<path fill-rule="evenodd" clip-rule="evenodd" d="M11.7461 0C11.8398 0 11.9805 0.0351562 12.0625 0.0742188C12.1406 0.117188 12.2539 0.199219 12.3125 0.261719C12.3711 0.320312 12.4453 0.4375 12.4766 0.519531C12.5312 0.640625 12.5391 0.890625 12.5391 2.12109C12.5391 3.25391 12.5234 3.63281 12.4805 3.84766C12.4492 3.99609 12.3633 4.24609 12.2891 4.39453C12.2187 4.54297 12.0898 4.75391 12.0039 4.86328C11.918 4.96875 11.7461 5.13672 11.6172 5.23438C11.4922 5.33203 11.3086 5.44922 11.2109 5.49609C11.1133 5.54688 10.2969 5.83984 9.39452 6.15625C8.49218 6.46875 7.59374 6.78125 7.03515 6.97266L7.02343 9.84375C7.00781 12.6719 7.00781 12.7188 6.92187 13.0273C6.87499 13.1992 6.79687 13.4375 6.74999 13.5547C6.70312 13.6719 6.60156 13.8828 6.51952 14.0234C6.43749 14.1641 6.29687 14.3672 6.20312 14.4727C6.10937 14.582 5.95703 14.7422 5.85937 14.832C5.76171 14.9219 5.54296 15.0781 5.37109 15.1836C5.19921 15.2891 4.89062 15.4297 4.68749 15.4961C4.47265 15.5664 4.14062 15.6406 3.90624 15.668C3.58202 15.707 3.41406 15.707 3.10546 15.668C2.89062 15.6406 2.55859 15.5664 2.36327 15.5039C2.17187 15.4414 1.8789 15.3125 1.71874 15.2188C1.55859 15.125 1.33593 14.9688 1.22656 14.875C1.11718 14.7852 0.945306 14.6094 0.843743 14.4922C0.742181 14.375 0.59765 14.1719 0.519525 14.043C0.445306 13.9141 0.332025 13.6875 0.273431 13.5352C0.214837 13.3828 0.132806 13.1211 0.0937434 12.9492C0.0390559 12.7188 0.0195247 12.4961 0.0234309 12.1094C0.0273372 11.6602 0.0429622 11.5312 0.132806 11.2422C0.187493 11.0508 0.289056 10.7891 0.355462 10.6562C0.421868 10.5195 0.554681 10.3047 0.644525 10.1758C0.738275 10.0469 0.933587 9.82422 1.07812 9.68359C1.22656 9.54297 1.45312 9.35938 1.58202 9.27734C1.71093 9.19531 1.9414 9.07031 2.08984 9C2.24218 8.92969 2.52343 8.83203 2.71484 8.78516C2.99218 8.71484 3.17187 8.69531 3.57421 8.69922C3.96093 8.69922 4.15624 8.71875 4.39452 8.78516C4.5664 8.82812 4.8789 8.95703 5.46874 9.25781V6.45312C5.46874 4.24219 5.48046 3.59766 5.52343 3.39844C5.55077 3.25781 5.64062 3.01172 5.72265 2.85156C5.82812 2.63672 5.94921 2.48047 6.16796 2.26562C6.35546 2.07812 6.5664 1.91797 6.73828 1.82812C6.89062 1.75 8.03124 1.3125 9.27734 0.859375C10.5234 0.40625 11.5508 0.0273438 11.5586 0.015625C11.5664 0.0078125 11.6523 0 11.7461 0ZM7.36718 3.26953C7.28124 3.32812 7.17187 3.45703 7.12109 3.55469C7.03515 3.72266 7.03124 3.76563 7.03124 4.52344C7.03124 4.95703 7.03515 5.3125 7.04296 5.3125C7.04687 5.3125 7.76171 5.06641 8.63281 4.76562C9.5039 4.46484 10.3086 4.17578 10.4258 4.12891C10.5508 4.07812 10.6875 3.98438 10.7578 3.90234C10.8242 3.82422 10.9023 3.69141 10.9258 3.60938C10.957 3.51172 10.9766 3.1875 10.9766 2.6875C10.9766 2.26172 10.9648 1.91406 10.9492 1.91797C10.9297 1.91797 10.1523 2.19922 9.21874 2.53906C8.22265 2.90234 7.45703 3.20703 7.36718 3.26953ZM2.54296 10.5117C2.39843 10.5859 2.20702 10.7383 2.09374 10.8594C1.98437 10.9805 1.84765 11.1719 1.78906 11.2891C1.73046 11.4062 1.65624 11.6172 1.62499 11.7578C1.58984 11.8984 1.56249 12.0938 1.56249 12.1953C1.56249 12.3008 1.58202 12.4766 1.60546 12.5859C1.6289 12.6992 1.69921 12.9023 1.76171 13.0352C1.82421 13.1758 1.97265 13.3867 2.10156 13.5195C2.22265 13.6523 2.42968 13.8164 2.55859 13.8906C2.68749 13.9609 2.89843 14.0469 3.02734 14.082C3.15624 14.1133 3.37499 14.1406 3.51562 14.1406C3.65624 14.1406 3.87109 14.1133 3.99609 14.082C4.11718 14.0508 4.31249 13.9766 4.42577 13.9219C4.53515 13.8633 4.74609 13.6992 4.88671 13.5586C5.05859 13.3867 5.18359 13.2148 5.26171 13.0469C5.32812 12.9062 5.40234 12.6992 5.42577 12.5859C5.44921 12.4766 5.46874 12.3008 5.46874 12.1953C5.46874 12.0938 5.4414 11.8984 5.40624 11.7578C5.37499 11.6172 5.30077 11.4062 5.24218 11.2891C5.18359 11.1719 5.04687 10.9805 4.93749 10.8594C4.82421 10.7344 4.63281 10.5898 4.48827 10.5117C4.35156 10.4375 4.15234 10.3555 4.04296 10.3242C3.93749 10.2969 3.6914 10.2773 3.49609 10.2773C3.30077 10.2773 3.0664 10.3008 2.96874 10.3281C2.87109 10.3555 2.67968 10.4375 2.54296 10.5117ZM19.1992 4.30078C19.2422 4.30078 19.3437 4.31641 19.4258 4.33594C19.5039 4.35938 19.6328 4.43359 19.7148 4.5C19.793 4.57031 19.8867 4.69922 19.9258 4.78516C19.9922 4.92578 20 5.07422 20 6.40625C20 7.55469 19.9844 7.92969 19.9414 8.14453C19.9101 8.29297 19.8242 8.54297 19.75 8.69141C19.6797 8.83984 19.5508 9.05078 19.4648 9.16016C19.3789 9.26562 19.2109 9.42969 19.0976 9.51953C18.9805 9.60938 18.8008 9.72656 18.6914 9.78125C18.5859 9.83203 18.168 9.99219 17.7656 10.1328C17.2383 10.3164 16.9766 10.3906 16.8359 10.3906C16.7305 10.3906 16.5937 10.3711 16.5351 10.3477C16.4726 10.3281 16.375 10.2617 16.3125 10.2031C16.25 10.1445 16.168 10.0273 16.1289 9.94141C16.0898 9.85547 16.0547 9.71484 16.0547 9.62891C16.0547 9.54297 16.0898 9.40234 16.1289 9.31641C16.168 9.23047 16.25 9.11328 16.3125 9.05469C16.3906 8.98047 16.6641 8.86328 17.207 8.67188C17.6367 8.52344 18.0273 8.37109 18.0781 8.33984C18.125 8.30859 18.207 8.22266 18.2578 8.15234C18.3086 8.08594 18.3672 7.96484 18.3945 7.89062C18.4219 7.80469 18.4375 7.46094 18.4375 6.98047C18.4375 6.38281 18.4258 6.21484 18.3906 6.22656C18.3633 6.23438 17.6016 6.50781 16.6992 6.83203C15.7969 7.16016 14.9844 7.46875 14.8945 7.52344C14.8008 7.57422 14.6797 7.69141 14.5117 7.94531L14.4726 17.0117L14.3828 17.3242C14.3359 17.4961 14.2578 17.7344 14.2109 17.8516C14.1641 17.9688 14.0625 18.1797 13.9805 18.3203C13.8984 18.4609 13.75 18.6719 13.6445 18.793C13.543 18.9141 13.3867 19.0742 13.3008 19.1523C13.2148 19.2266 13.0039 19.375 12.832 19.4805C12.6445 19.5938 12.3633 19.7188 12.1289 19.793C11.9141 19.8594 11.6562 19.9336 11.5547 19.957C11.4492 19.9805 11.1914 20 10.9766 20C10.7617 20 10.5039 19.9805 10.4023 19.957C10.2969 19.9336 10.0469 19.8633 9.84374 19.8008C9.64062 19.7383 9.33984 19.6094 9.17968 19.5156C9.01952 19.4219 8.79687 19.2656 8.68749 19.1719C8.57812 19.082 8.40624 18.9062 8.30468 18.7891C8.20312 18.6719 8.05859 18.4688 7.98046 18.3398C7.90624 18.2109 7.79296 17.9844 7.73437 17.832C7.67578 17.6797 7.59374 17.418 7.55468 17.2461C7.49999 17.0156 7.48046 16.793 7.48437 16.4062C7.48828 15.957 7.5039 15.8281 7.59374 15.5391C7.64843 15.3477 7.74999 15.0859 7.8164 14.9531C7.88281 14.8164 8.01171 14.6016 8.10546 14.4727C8.19531 14.3438 8.40234 14.1133 8.55859 13.9648C8.71874 13.8125 8.97265 13.6133 9.12109 13.5234C9.27343 13.4336 9.51952 13.3086 9.66796 13.2461C9.82031 13.1875 10.082 13.1016 10.2539 13.0625C10.4805 13.0117 10.7031 12.9922 11.0547 12.9922C11.418 12.9961 11.625 13.0195 11.8555 13.082C12.0273 13.125 12.3398 13.2539 12.9297 13.5547V10.7539C12.9297 8.53906 12.9414 7.89453 12.9844 7.69531C13.0117 7.55469 13.1016 7.30859 13.1836 7.14844C13.2891 6.93359 13.4101 6.77734 13.6289 6.5625C13.8164 6.375 14.0273 6.21484 14.1992 6.125C14.3516 6.04688 15.4844 5.61328 16.7187 5.16406C17.9531 4.71484 19 4.33594 19.043 4.32422C19.0859 4.31641 19.1562 4.30469 19.1992 4.30078ZM10.0039 14.8086C9.85937 14.8828 9.66796 15.0352 9.55468 15.1562C9.44531 15.2773 9.30859 15.4688 9.24999 15.5859C9.1914 15.7031 9.11718 15.9141 9.08593 16.0547C9.05078 16.1953 9.02343 16.3906 9.02343 16.4922C9.02343 16.5977 9.04296 16.7734 9.0664 16.8828C9.08984 16.9961 9.16406 17.2031 9.23046 17.3438C9.30859 17.5156 9.43359 17.6797 9.60546 17.8516C9.74609 17.9922 9.95312 18.1523 10.0586 18.2109C10.168 18.2695 10.3594 18.3438 10.4883 18.375C10.6172 18.4102 10.8359 18.4375 10.9766 18.4375C11.1172 18.4375 11.3359 18.4102 11.4648 18.375C11.5937 18.3438 11.8047 18.2578 11.9297 18.1914C12.0586 18.1211 12.2617 17.957 12.3867 17.8203C12.5195 17.6836 12.668 17.4727 12.7305 17.332C12.793 17.1992 12.8633 16.9961 12.8867 16.8828C12.9101 16.7734 12.9297 16.5977 12.9297 16.4922C12.9297 16.3906 12.9023 16.1953 12.8672 16.0547C12.8359 15.9141 12.7617 15.7031 12.7031 15.5859C12.6445 15.4688 12.5078 15.2773 12.3984 15.1562C12.2851 15.0312 12.0937 14.8867 11.9492 14.8086C11.8125 14.7344 11.6133 14.6523 11.5039 14.6211C11.3984 14.5938 11.1523 14.5742 10.957 14.5742C10.7656 14.5742 10.5273 14.5977 10.4297 14.625C10.332 14.6523 10.1406 14.7344 10.0039 14.8086Z" fill="#671252"/>
</g>
<defs>
<clipPath id="clip0_81_8738">
<rect width="20" height="20" fill="white"/>
</clipPath>
</defs>
</svg>
