<svg width="93" height="66" viewBox="0 0 93 66" fill="none" xmlns="http://www.w3.org/2000/svg">
<g clip-path="url(#clip0_4175_14730)">
<path d="M91.2255 10.2016C90.6905 8.22957 89.6467 6.4318 88.1981 4.98731C86.7494 3.54282 84.9466 2.50203 82.9691 1.96862C75.7293 0 46.5947 0 46.5947 0C46.5947 0 17.4588 0.0597414 10.2202 2.02836C8.24283 2.56186 6.44009 3.60269 4.99157 5.04717C3.54306 6.49165 2.49933 8.28938 1.96435 10.2613C-0.225431 23.0886 -1.07498 42.6332 2.02426 54.9467C2.55924 56.9186 3.60297 58.7163 5.05148 60.1608C6.49999 61.6053 8.30273 62.6461 10.2801 63.1796C17.5193 65.1483 46.6546 65.1483 46.6546 65.1483C46.6546 65.1483 75.7898 65.1483 83.029 63.1796C85.0064 62.6461 86.8091 61.6053 88.2576 60.1608C89.7061 58.7163 90.7499 56.9186 91.2849 54.9467C93.5939 42.1017 94.3065 22.5686 91.2255 10.2016Z" fill="#FF0000"/>
<path d="M37.3203 46.5346L61.49 32.5744L37.3203 18.6137V46.5346Z" fill="white"/>
</g>
<defs>
<clipPath id="clip0_4175_14730">
<rect width="93" height="66" fill="white"/>
</clipPath>
</defs>
</svg>
