<svg aria-hidden="true" xmlns="http://www.w3.org/2000/svg" xmlns:xlink="http://www.w3.org/1999/xlink"><symbol viewBox="0 0 16 16" fill="none" id="icon-arrow-down" xmlns="http://www.w3.org/2000/svg">
<path d="M4 6.8L8 10.8L12 6.8" stroke="currentColor" stroke-width="1.2" stroke-linecap="square"/>
</symbol><symbol viewBox="0 0 20 20" fill="none" id="icon-arrow-next" xmlns="http://www.w3.org/2000/svg">
<path d="M7.5 15L12.5 10L7.5 5" stroke="currentColor" stroke-width="1.5" stroke-linecap="square"/>
</symbol><symbol viewBox="0 0 20 20" fill="none" id="icon-arrow-prev" xmlns="http://www.w3.org/2000/svg">
<path fill-rule="evenodd" clip-rule="evenodd" d="M13.0891 4.41073C13.4145 4.73617 13.4145 5.26381 13.0891 5.58925L8.67835 9.99999L13.0891 14.4107C13.4145 14.7362 13.4145 15.2638 13.0891 15.5892C12.7637 15.9147 12.236 15.9147 11.9106 15.5892L6.91058 10.5892C6.58514 10.2638 6.58514 9.73617 6.91058 9.41073L11.9106 4.41073C12.236 4.0853 12.7637 4.0853 13.0891 4.41073Z" fill="currentColor"/>
</symbol><symbol viewBox="0 0 20 20" fill="none" id="icon-cart" xmlns="http://www.w3.org/2000/svg">
<path d="M6.66683 18.3333C7.12707 18.3333 7.50016 17.9602 7.50016 17.5C7.50016 17.0398 7.12707 16.6667 6.66683 16.6667C6.20659 16.6667 5.8335 17.0398 5.8335 17.5C5.8335 17.9602 6.20659 18.3333 6.66683 18.3333Z" stroke="currentColor" stroke-width="2" stroke-linecap="round" stroke-linejoin="round"/>
<path d="M15.8333 18.3333C16.2936 18.3333 16.6667 17.9602 16.6667 17.5C16.6667 17.0398 16.2936 16.6667 15.8333 16.6667C15.3731 16.6667 15 17.0398 15 17.5C15 17.9602 15.3731 18.3333 15.8333 18.3333Z" stroke="currentColor" stroke-width="2" stroke-linecap="round" stroke-linejoin="round"/>
<path d="M1.7085 1.70834H3.37516L5.59183 12.0583C5.67314 12.4374 5.88405 12.7762 6.18826 13.0166C6.49246 13.2569 6.87092 13.3836 7.2585 13.375H15.4085C15.7878 13.3744 16.1556 13.2444 16.451 13.0065C16.7465 12.7687 16.9519 12.4371 17.0335 12.0667L18.4085 5.875H4.26683" stroke="currentColor" stroke-width="2" stroke-linecap="round" stroke-linejoin="round"/>
</symbol><symbol viewBox="0 0 20 20" fill="none" id="icon-catalog" xmlns="http://www.w3.org/2000/svg">
<path d="M17.5 5H2.5" stroke="currentColor" stroke-width="2" stroke-linecap="round" stroke-linejoin="round"/>
<path d="M8.33333 10H2.5" stroke="currentColor" stroke-width="2" stroke-linecap="round" stroke-linejoin="round"/>
<path d="M8.33333 15H2.5" stroke="currentColor" stroke-width="2" stroke-linecap="round" stroke-linejoin="round"/>
<path d="M14.167 15C15.5477 15 16.667 13.8807 16.667 12.5C16.667 11.1193 15.5477 10 14.167 10C12.7863 10 11.667 11.1193 11.667 12.5C11.667 13.8807 12.7863 15 14.167 15Z" stroke="currentColor" stroke-width="2" stroke-linecap="round" stroke-linejoin="round"/>
<path d="M17.5003 15.8333L15.917 14.25" stroke="currentColor" stroke-width="2" stroke-linecap="round" stroke-linejoin="round"/>
</symbol><symbol viewBox="0 0 16 16" fill="none" id="icon-chat" xmlns="http://www.w3.org/2000/svg">
<path d="M14 10C14 10.3536 13.8595 10.6928 13.6095 10.9428C13.3594 11.1929 13.0203 11.3333 12.6667 11.3333H4.66667L2 14V3.33333C2 2.97971 2.14048 2.64057 2.39052 2.39052C2.64057 2.14048 2.97971 2 3.33333 2H12.6667C13.0203 2 13.3594 2.14048 13.6095 2.39052C13.8595 2.64057 14 2.97971 14 3.33333V10Z" stroke="currentColor" stroke-width="1.5" stroke-linecap="round" stroke-linejoin="round"/>
</symbol><symbol viewBox="0 0 20 20" fill="none" id="icon-close" xmlns="http://www.w3.org/2000/svg">
<path d="M15 5L5 15" stroke="currentColor" stroke-width="2" stroke-linecap="round" stroke-linejoin="round"/>
<path d="M5 5L15 15" stroke="currentColor" stroke-width="2" stroke-linecap="round" stroke-linejoin="round"/>
</symbol><symbol viewBox="0 0 20 20" fill="none" id="icon-heart" xmlns="http://www.w3.org/2000/svg">
<path d="M15.8332 11.6667C17.0748 10.45 18.3332 8.99167 18.3332 7.08333C18.3332 5.86776 17.8503 4.70197 16.9907 3.84243C16.1312 2.98289 14.9654 2.5 13.7498 2.5C12.2832 2.5 11.2498 2.91667 9.99984 4.16667C8.74984 2.91667 7.7165 2.5 6.24984 2.5C5.03426 2.5 3.86847 2.98289 3.00893 3.84243C2.14939 4.70197 1.6665 5.86776 1.6665 7.08333C1.6665 9 2.9165 10.4583 4.1665 11.6667L9.99984 17.5L15.8332 11.6667Z" fill="currentColor" stroke-width="2" stroke-linecap="round" stroke-linejoin="round"/>
</symbol><symbol viewBox="0 0 16 16" fill="none" id="icon-location" xmlns="http://www.w3.org/2000/svg">
<path d="M13.3332 6.66667C13.3332 9.99533 9.6405 13.462 8.4005 14.5327C8.28499 14.6195 8.14437 14.6665 7.99984 14.6665C7.8553 14.6665 7.71469 14.6195 7.59917 14.5327C6.35917 13.462 2.6665 9.99533 2.6665 6.66667C2.6665 5.25218 3.22841 3.89562 4.2286 2.89543C5.22879 1.89524 6.58535 1.33333 7.99984 1.33333C9.41432 1.33333 10.7709 1.89524 11.7711 2.89543C12.7713 3.89562 13.3332 5.25218 13.3332 6.66667Z" stroke="currentColor" stroke-width="1.5" stroke-linecap="round" stroke-linejoin="round"/>
<path d="M8 8.66667C9.10457 8.66667 10 7.77124 10 6.66667C10 5.5621 9.10457 4.66667 8 4.66667C6.89543 4.66667 6 5.5621 6 6.66667C6 7.77124 6.89543 8.66667 8 8.66667Z" stroke="currentColor" stroke-width="1.5" stroke-linecap="round" stroke-linejoin="round"/>
</symbol><symbol viewBox="0 0 20 20" fill="none" id="icon-profile" xmlns="http://www.w3.org/2000/svg">
<path d="M10.0002 10.8333C12.3013 10.8333 14.1668 8.96785 14.1668 6.66667C14.1668 4.36548 12.3013 2.5 10.0002 2.5C7.69898 2.5 5.8335 4.36548 5.8335 6.66667C5.8335 8.96785 7.69898 10.8333 10.0002 10.8333Z" stroke="currentColor" stroke-width="2" stroke-linecap="round" stroke-linejoin="round"/>
<path d="M16.6668 17.5C16.6668 15.7319 15.9645 14.0362 14.7142 12.786C13.464 11.5357 11.7683 10.8333 10.0002 10.8333C8.23205 10.8333 6.53636 11.5357 5.28612 12.786C4.03588 14.0362 3.3335 15.7319 3.3335 17.5" stroke="currentColor" stroke-width="2" stroke-linecap="round" stroke-linejoin="round"/>
</symbol><symbol viewBox="0 0 16 16" fill="none" id="icon-search" xmlns="http://www.w3.org/2000/svg">
<path d="M7.33333 12.6667C10.2789 12.6667 12.6667 10.2789 12.6667 7.33333C12.6667 4.38781 10.2789 2 7.33333 2C4.38781 2 2 4.38781 2 7.33333C2 10.2789 4.38781 12.6667 7.33333 12.6667Z" stroke="currentColor" stroke-width="1.5" stroke-linecap="round" stroke-linejoin="round"/>
<path d="M13.9995 14.0001L11.1328 11.1334" stroke="currentColor" stroke-width="1.5" stroke-linecap="round" stroke-linejoin="round"/>
</symbol><symbol viewBox="0 0 16 16" fill="none" id="icon-tel" xmlns="http://www.w3.org/2000/svg">
<g clip-path="url(#lclip0_4001_337)">
<path d="M9.2215 11.0453C9.35918 11.1086 9.5143 11.123 9.66129 11.0863C9.80828 11.0496 9.93839 10.9639 10.0302 10.8433L10.2668 10.5333C10.391 10.3677 10.5521 10.2333 10.7372 10.1408C10.9224 10.0482 11.1265 10 11.3335 10H13.3335C13.6871 10 14.0263 10.1405 14.2763 10.3905C14.5264 10.6406 14.6668 10.9797 14.6668 11.3333V13.3333C14.6668 13.687 14.5264 14.0261 14.2763 14.2761C14.0263 14.5262 13.6871 14.6667 13.3335 14.6667C10.1509 14.6667 7.09865 13.4024 4.84821 11.1519C2.59778 8.90151 1.3335 5.84926 1.3335 2.66667C1.3335 2.31304 1.47397 1.97391 1.72402 1.72386C1.97407 1.47381 2.31321 1.33333 2.66683 1.33333H4.66683C5.02045 1.33333 5.35959 1.47381 5.60964 1.72386C5.85969 1.97391 6.00016 2.31304 6.00016 2.66667V4.66667C6.00016 4.87366 5.95197 5.07781 5.8594 5.26295C5.76683 5.44809 5.63242 5.60914 5.46683 5.73333L5.15483 5.96733C5.03244 6.06078 4.94618 6.19372 4.91069 6.34357C4.8752 6.49341 4.89268 6.65092 4.96016 6.78933C5.87128 8.63991 7.36978 10.1365 9.2215 11.0453Z" stroke="currentColor" stroke-width="1.5" stroke-linecap="round" stroke-linejoin="round"/>
</g>
<defs>
<clipPath id="lclip0_4001_337">
<rect width="16" height="16" fill="currentColor"/>
</clipPath>
</defs>
</symbol></svg>