<svg aria-hidden="true" xmlns="http://www.w3.org/2000/svg" xmlns:xlink="http://www.w3.org/1999/xlink"><symbol viewBox="0 0 16 16" fill="none" id="icon-arrow-down" xmlns="http://www.w3.org/2000/svg">
<path d="M4 6.8L8 10.8L12 6.8" stroke="currentColor" stroke-width="1.2" stroke-linecap="square"/>
</symbol><symbol viewBox="0 0 24 24" fill="none" id="icon-arrow-line-prev" xmlns="http://www.w3.org/2000/svg">
<path d="M12 19L5 12L12 5" stroke="currentColor" stroke-width="2" stroke-linecap="round" stroke-linejoin="round"/>
<path d="M19 12H5" stroke="currentColor" stroke-width="2" stroke-linecap="round" stroke-linejoin="round"/>
</symbol><symbol viewBox="0 0 20 20" fill="none" id="icon-arrow-next" xmlns="http://www.w3.org/2000/svg">
<path d="M7.5 15L12.5 10L7.5 5" stroke="currentColor" stroke-width="1.5" stroke-linecap="square"/>
</symbol><symbol viewBox="0 0 20 20" fill="none" id="icon-arrow-prev" xmlns="http://www.w3.org/2000/svg">
<path fill-rule="evenodd" clip-rule="evenodd" d="M13.0891 4.41073C13.4145 4.73617 13.4145 5.26381 13.0891 5.58925L8.67835 9.99999L13.0891 14.4107C13.4145 14.7362 13.4145 15.2638 13.0891 15.5892C12.7637 15.9147 12.236 15.9147 11.9106 15.5892L6.91058 10.5892C6.58514 10.2638 6.58514 9.73617 6.91058 9.41073L11.9106 4.41073C12.236 4.0853 12.7637 4.0853 13.0891 4.41073Z" fill="currentColor"/>
</symbol><symbol viewBox="0 0 20 20" fill="none" id="icon-auth-profile" xmlns="http://www.w3.org/2000/svg">
<g clip-path="url(#aeclip0_77_7195)">
<path d="M15 16.6667C15 15.3406 14.4732 14.0688 13.5355 13.1312C12.5979 12.1935 11.3261 11.6667 10 11.6667C8.67392 11.6667 7.40215 12.1935 6.46447 13.1312C5.52678 14.0688 5 15.3406 5 16.6667" stroke="currentColor" stroke-width="2" stroke-linecap="round" stroke-linejoin="round"/>
<path d="M9.99984 11.6667C11.8408 11.6667 13.3332 10.1743 13.3332 8.33333C13.3332 6.49238 11.8408 5 9.99984 5C8.15889 5 6.6665 6.49238 6.6665 8.33333C6.6665 10.1743 8.15889 11.6667 9.99984 11.6667Z" stroke="currentColor" stroke-width="2" stroke-linecap="round" stroke-linejoin="round"/>
<path d="M9.99984 18.3334C14.6022 18.3334 18.3332 14.6024 18.3332 10C18.3332 5.39765 14.6022 1.66669 9.99984 1.66669C5.39746 1.66669 1.6665 5.39765 1.6665 10C1.6665 14.6024 5.39746 18.3334 9.99984 18.3334Z" stroke="currentColor" stroke-width="2" stroke-linecap="round" stroke-linejoin="round"/>
</g>
<defs>
<clipPath id="aeclip0_77_7195">
<rect width="20" height="20" fill="currentColor"/>
</clipPath>
</defs>
</symbol><symbol viewBox="0 0 20 20" fill="none" id="icon-cart" xmlns="http://www.w3.org/2000/svg">
<path d="M6.66683 18.3333C7.12707 18.3333 7.50016 17.9602 7.50016 17.5C7.50016 17.0398 7.12707 16.6667 6.66683 16.6667C6.20659 16.6667 5.8335 17.0398 5.8335 17.5C5.8335 17.9602 6.20659 18.3333 6.66683 18.3333Z" stroke="currentColor" stroke-width="2" stroke-linecap="round" stroke-linejoin="round"/>
<path d="M15.8333 18.3333C16.2936 18.3333 16.6667 17.9602 16.6667 17.5C16.6667 17.0398 16.2936 16.6667 15.8333 16.6667C15.3731 16.6667 15 17.0398 15 17.5C15 17.9602 15.3731 18.3333 15.8333 18.3333Z" stroke="currentColor" stroke-width="2" stroke-linecap="round" stroke-linejoin="round"/>
<path d="M1.7085 1.70834H3.37516L5.59183 12.0583C5.67314 12.4374 5.88405 12.7762 6.18826 13.0166C6.49246 13.2569 6.87092 13.3836 7.2585 13.375H15.4085C15.7878 13.3744 16.1556 13.2444 16.451 13.0065C16.7465 12.7687 16.9519 12.4371 17.0335 12.0667L18.4085 5.875H4.26683" stroke="currentColor" stroke-width="2" stroke-linecap="round" stroke-linejoin="round"/>
</symbol><symbol viewBox="0 0 20 20" fill="none" id="icon-catalog" xmlns="http://www.w3.org/2000/svg">
<path d="M17.5 5H2.5" stroke="currentColor" stroke-width="2" stroke-linecap="round" stroke-linejoin="round"/>
<path d="M8.33333 10H2.5" stroke="currentColor" stroke-width="2" stroke-linecap="round" stroke-linejoin="round"/>
<path d="M8.33333 15H2.5" stroke="currentColor" stroke-width="2" stroke-linecap="round" stroke-linejoin="round"/>
<path d="M14.167 15C15.5477 15 16.667 13.8807 16.667 12.5C16.667 11.1193 15.5477 10 14.167 10C12.7863 10 11.667 11.1193 11.667 12.5C11.667 13.8807 12.7863 15 14.167 15Z" stroke="currentColor" stroke-width="2" stroke-linecap="round" stroke-linejoin="round"/>
<path d="M17.5003 15.8333L15.917 14.25" stroke="currentColor" stroke-width="2" stroke-linecap="round" stroke-linejoin="round"/>
</symbol><symbol viewBox="0 0 16 16" fill="none" id="icon-chat" xmlns="http://www.w3.org/2000/svg">
<path d="M14 10C14 10.3536 13.8595 10.6928 13.6095 10.9428C13.3594 11.1929 13.0203 11.3333 12.6667 11.3333H4.66667L2 14V3.33333C2 2.97971 2.14048 2.64057 2.39052 2.39052C2.64057 2.14048 2.97971 2 3.33333 2H12.6667C13.0203 2 13.3594 2.14048 13.6095 2.39052C13.8595 2.64057 14 2.97971 14 3.33333V10Z" stroke="currentColor" stroke-width="1.5" stroke-linecap="round" stroke-linejoin="round"/>
</symbol><symbol viewBox="0 0 20 20" fill="none" id="icon-close" xmlns="http://www.w3.org/2000/svg">
<path d="M15 5L5 15" stroke="currentColor" stroke-width="2" stroke-linecap="round" stroke-linejoin="round"/>
<path d="M5 5L15 15" stroke="currentColor" stroke-width="2" stroke-linecap="round" stroke-linejoin="round"/>
</symbol><symbol viewBox="0 0 16 16" fill="none" id="icon-eye" xmlns="http://www.w3.org/2000/svg">
<path d="M1.3737 8.232C1.31814 8.08232 1.31814 7.91767 1.3737 7.768C1.91483 6.4559 2.83338 5.33402 4.01288 4.5446C5.19239 3.75517 6.57973 3.33374 7.99904 3.33374C9.41834 3.33374 10.8057 3.75517 11.9852 4.5446C13.1647 5.33402 14.0832 6.4559 14.6244 7.768C14.6799 7.91767 14.6799 8.08232 14.6244 8.232C14.0832 9.54409 13.1647 10.666 11.9852 11.4554C10.8057 12.2448 9.41834 12.6663 7.99904 12.6663C6.57973 12.6663 5.19239 12.2448 4.01288 11.4554C2.83338 10.666 1.91483 9.54409 1.3737 8.232Z" stroke="currentColor" stroke-linecap="round" stroke-linejoin="round"/>
<path d="M8 10C9.10457 10 10 9.10457 10 8C10 6.89543 9.10457 6 8 6C6.89543 6 6 6.89543 6 8C6 9.10457 6.89543 10 8 10Z" stroke="currentColor" stroke-linecap="round" stroke-linejoin="round"/>
</symbol><symbol viewBox="0 0 20 20" fill="none" id="icon-filter" xmlns="http://www.w3.org/2000/svg">
<path d="M17.5003 3.33331H11.667" stroke="currentColor" stroke-width="2" stroke-linecap="round" stroke-linejoin="round"/>
<path d="M8.33333 3.33331H2.5" stroke="currentColor" stroke-width="2" stroke-linecap="round" stroke-linejoin="round"/>
<path d="M17.5 10H10" stroke="currentColor" stroke-width="2" stroke-linecap="round" stroke-linejoin="round"/>
<path d="M6.66667 10H2.5" stroke="currentColor" stroke-width="2" stroke-linecap="round" stroke-linejoin="round"/>
<path d="M17.4997 16.6667H13.333" stroke="currentColor" stroke-width="2" stroke-linecap="round" stroke-linejoin="round"/>
<path d="M10 16.6667H2.5" stroke="currentColor" stroke-width="2" stroke-linecap="round" stroke-linejoin="round"/>
<path d="M11.667 1.66669V5.00002" stroke="currentColor" stroke-width="2" stroke-linecap="round" stroke-linejoin="round"/>
<path d="M6.66699 8.33331V11.6666" stroke="currentColor" stroke-width="2" stroke-linecap="round" stroke-linejoin="round"/>
<path d="M13.333 15V18.3333" stroke="currentColor" stroke-width="2" stroke-linecap="round" stroke-linejoin="round"/>
</symbol><symbol viewBox="0 0 20 20" fill="none" id="icon-grid" xmlns="http://www.w3.org/2000/svg">
<path d="M10 2.5V17.5" stroke="currentColor" stroke-width="1.2" stroke-linecap="round" stroke-linejoin="round"/>
<path d="M2.5 10H17.5" stroke="currentColor" stroke-width="1.2" stroke-linecap="round" stroke-linejoin="round"/>
<path d="M15.8333 2.5H4.16667C3.24619 2.5 2.5 3.24619 2.5 4.16667V15.8333C2.5 16.7538 3.24619 17.5 4.16667 17.5H15.8333C16.7538 17.5 17.5 16.7538 17.5 15.8333V4.16667C17.5 3.24619 16.7538 2.5 15.8333 2.5Z" stroke="currentColor" stroke-width="1.2" stroke-linecap="round" stroke-linejoin="round"/>
</symbol><symbol viewBox="0 0 20 20" fill="none" id="icon-heart" xmlns="http://www.w3.org/2000/svg">
<path d="M15.8332 11.6667C17.0748 10.45 18.3332 8.99167 18.3332 7.08333C18.3332 5.86776 17.8503 4.70197 16.9907 3.84243C16.1312 2.98289 14.9654 2.5 13.7498 2.5C12.2832 2.5 11.2498 2.91667 9.99984 4.16667C8.74984 2.91667 7.7165 2.5 6.24984 2.5C5.03426 2.5 3.86847 2.98289 3.00893 3.84243C2.14939 4.70197 1.6665 5.86776 1.6665 7.08333C1.6665 9 2.9165 10.4583 4.1665 11.6667L9.99984 17.5L15.8332 11.6667Z" fill="currentColor" stroke-width="2" stroke-linecap="round" stroke-linejoin="round"/>
</symbol><symbol viewBox="0 0 21 20" fill="none" id="icon-home" xmlns="http://www.w3.org/2000/svg">
<path d="M12.5996 17.5V10.8333C12.5996 10.6123 12.5118 10.4004 12.3555 10.2441C12.1993 10.0878 11.9873 10 11.7663 10H8.43294C8.21193 10 7.99997 10.0878 7.84369 10.2441C7.68741 10.4004 7.59961 10.6123 7.59961 10.8333V17.5" stroke="currentColor" stroke-width="2" stroke-linecap="round" stroke-linejoin="round"/>
<path d="M2.59961 8.33322C2.59955 8.09078 2.65239 7.85124 2.75443 7.63132C2.85648 7.4114 3.00527 7.21639 3.19044 7.05989L9.02378 2.06073C9.3246 1.80648 9.70574 1.66699 10.0996 1.66699C10.4935 1.66699 10.8746 1.80648 11.1754 2.06073L17.0088 7.05989C17.1939 7.21639 17.3427 7.4114 17.4448 7.63132C17.5468 7.85124 17.5997 8.09078 17.5996 8.33322V15.8332C17.5996 16.2753 17.424 16.6992 17.1115 17.0117C16.7989 17.3243 16.375 17.4999 15.9329 17.4999H4.26628C3.82425 17.4999 3.40033 17.3243 3.08776 17.0117C2.7752 16.6992 2.59961 16.2753 2.59961 15.8332V8.33322Z" stroke="currentColor" stroke-width="2" stroke-linecap="round" stroke-linejoin="round"/>
</symbol><symbol viewBox="0 0 20 20" fill="none" id="icon-lines" xmlns="http://www.w3.org/2000/svg">
<path d="M15.8333 2.5H4.16667C3.24619 2.5 2.5 3.24619 2.5 4.16667V15.8333C2.5 16.7538 3.24619 17.5 4.16667 17.5H15.8333C16.7538 17.5 17.5 16.7538 17.5 15.8333V4.16667C17.5 3.24619 16.7538 2.5 15.8333 2.5Z" stroke="currentColor" stroke-width="1.2" stroke-linecap="round" stroke-linejoin="round"/>
<path d="M17.5 7.5H2.5" stroke="currentColor" stroke-width="1.2" stroke-linecap="round" stroke-linejoin="round"/>
<path d="M17.5 12.5H2.5" stroke="currentColor" stroke-width="1.2" stroke-linecap="round" stroke-linejoin="round"/>
</symbol><symbol viewBox="0 0 16 16" fill="none" id="icon-location" xmlns="http://www.w3.org/2000/svg">
<path d="M13.3332 6.66667C13.3332 9.99533 9.6405 13.462 8.4005 14.5327C8.28499 14.6195 8.14437 14.6665 7.99984 14.6665C7.8553 14.6665 7.71469 14.6195 7.59917 14.5327C6.35917 13.462 2.6665 9.99533 2.6665 6.66667C2.6665 5.25218 3.22841 3.89562 4.2286 2.89543C5.22879 1.89524 6.58535 1.33333 7.99984 1.33333C9.41432 1.33333 10.7709 1.89524 11.7711 2.89543C12.7713 3.89562 13.3332 5.25218 13.3332 6.66667Z" stroke="currentColor" stroke-width="1.5" stroke-linecap="round" stroke-linejoin="round"/>
<path d="M8 8.66667C9.10457 8.66667 10 7.77124 10 6.66667C10 5.5621 9.10457 4.66667 8 4.66667C6.89543 4.66667 6 5.5621 6 6.66667C6 7.77124 6.89543 8.66667 8 8.66667Z" stroke="currentColor" stroke-width="1.5" stroke-linecap="round" stroke-linejoin="round"/>
</symbol><symbol viewBox="0 0 16 16" fill="none" id="icon-mail" xmlns="http://www.w3.org/2000/svg">
<path d="M14.6693 4.66669L8.67527 8.48469C8.47187 8.60283 8.24083 8.66506 8.0056 8.66506C7.77038 8.66506 7.53934 8.60283 7.33594 8.48469L1.33594 4.66669" stroke="currentColor" stroke-width="1.5" stroke-linecap="round" stroke-linejoin="round"/>
<path d="M13.3359 2.66669H2.66927C1.93289 2.66669 1.33594 3.26364 1.33594 4.00002V12C1.33594 12.7364 1.93289 13.3334 2.66927 13.3334H13.3359C14.0723 13.3334 14.6693 12.7364 14.6693 12V4.00002C14.6693 3.26364 14.0723 2.66669 13.3359 2.66669Z" stroke="currentColor" stroke-width="1.5" stroke-linecap="round" stroke-linejoin="round"/>
</symbol><symbol viewBox="0 0 30 29" fill="none" id="icon-play" xmlns="http://www.w3.org/2000/svg">
<path d="M5.32031 28.3956L29.49 14.4355L5.32031 0.474792V28.3956Z" fill="currentColor"/>
</symbol><symbol viewBox="0 0 20 20" fill="none" id="icon-profile" xmlns="http://www.w3.org/2000/svg">
<path d="M10.0002 10.8333C12.3013 10.8333 14.1668 8.96785 14.1668 6.66667C14.1668 4.36548 12.3013 2.5 10.0002 2.5C7.69898 2.5 5.8335 4.36548 5.8335 6.66667C5.8335 8.96785 7.69898 10.8333 10.0002 10.8333Z" stroke="currentColor" stroke-width="2" stroke-linecap="round" stroke-linejoin="round"/>
<path d="M16.6668 17.5C16.6668 15.7319 15.9645 14.0362 14.7142 12.786C13.464 11.5357 11.7683 10.8333 10.0002 10.8333C8.23205 10.8333 6.53636 11.5357 5.28612 12.786C4.03588 14.0362 3.3335 15.7319 3.3335 17.5" stroke="currentColor" stroke-width="2" stroke-linecap="round" stroke-linejoin="round"/>
</symbol><symbol viewBox="0 0 21 20" fill="none" id="icon-question" xmlns="http://www.w3.org/2000/svg">
<path d="M7.08268 16.6667C8.67316 17.4826 10.5028 17.7036 12.2418 17.2898C13.9808 16.8761 15.5148 15.8549 16.5675 14.4102C17.6201 12.9655 18.1222 11.1923 17.9832 9.41015C17.8441 7.62803 17.0732 5.95416 15.8092 4.69018C14.5452 3.4262 12.8713 2.65523 11.0892 2.5162C9.30709 2.37717 7.53391 2.87922 6.0892 3.93189C4.64449 4.98456 3.62326 6.51861 3.20953 8.25761C2.79581 9.99661 3.0168 11.8262 3.83268 13.4167L2.16602 18.3334L7.08268 16.6667Z" stroke="currentColor" stroke-width="2" stroke-linecap="round" stroke-linejoin="round"/>
<path d="M8.07422 7.49999C8.27014 6.94304 8.65685 6.47341 9.16585 6.17426C9.67485 5.87512 10.2733 5.76577 10.8552 5.86558C11.4371 5.96539 11.9649 6.26792 12.3451 6.71959C12.7253 7.17126 12.9334 7.74292 12.9326 8.33332C12.9326 9.99999 10.4326 10.8333 10.4326 10.8333" stroke="currentColor" stroke-width="2" stroke-linecap="round" stroke-linejoin="round"/>
<path d="M10.5 14.1667H10.5083" stroke="currentColor" stroke-width="2" stroke-linecap="round" stroke-linejoin="round"/>
</symbol><symbol viewBox="0 0 16 16" fill="none" id="icon-search" xmlns="http://www.w3.org/2000/svg">
<path d="M7.33333 12.6667C10.2789 12.6667 12.6667 10.2789 12.6667 7.33333C12.6667 4.38781 10.2789 2 7.33333 2C4.38781 2 2 4.38781 2 7.33333C2 10.2789 4.38781 12.6667 7.33333 12.6667Z" stroke="currentColor" stroke-width="1.5" stroke-linecap="round" stroke-linejoin="round"/>
<path d="M13.9995 14.0001L11.1328 11.1334" stroke="currentColor" stroke-width="1.5" stroke-linecap="round" stroke-linejoin="round"/>
</symbol><symbol viewBox="0 0 20 16" fill="none" id="icon-settings" xmlns="http://www.w3.org/2000/svg">
<path d="M9.62451 4.25L8.93701 4.84375C8.96826 5.0625 8.96826 5.28125 8.96826 5.5C8.96826 5.71875 8.96826 5.9375 8.93701 6.15625L9.62451 6.78125C9.84326 6.96875 9.93701 7.28125 9.81201 7.5625C9.74951 7.71875 9.65576 7.90625 9.56201 8.0625L9.46826 8.21875C9.37451 8.375 9.28076 8.53125 9.18701 8.6875C8.99951 8.90625 8.68701 9 8.40576 8.90625L7.53076 8.59375C7.18701 8.875 6.81201 9.09375 6.37451 9.25L6.18701 10.1562C6.12451 10.4688 5.90576 10.6875 5.62451 10.7188C5.40576 10.75 5.18701 10.75 4.96826 10.75C4.78076 10.75 4.56201 10.75 4.34326 10.7188C4.06201 10.6875 3.81201 10.4688 3.78076 10.1562L3.56201 9.25C3.15576 9.09375 2.78076 8.875 2.43701 8.59375L1.56201 8.90625C1.28076 9 0.968262 8.90625 0.780762 8.6875C0.687012 8.53125 0.562012 8.375 0.468262 8.21875L0.374512 8.0625C0.312012 7.90625 0.218262 7.71875 0.155762 7.5625C0.0307617 7.28125 0.124512 6.96875 0.343262 6.78125L1.03076 6.15625C0.999512 5.96875 0.999512 5.75 0.999512 5.5C0.999512 5.28125 0.999512 5.0625 1.03076 4.875L0.343262 4.25C0.124512 4.03125 0.0307617 3.75 0.155762 3.46875C0.218262 3.28125 0.312012 3.125 0.374512 2.96875L0.468262 2.8125C0.593262 2.65625 0.687012 2.5 0.780762 2.34375C0.968262 2.125 1.28076 2.03125 1.56201 2.125L2.43701 2.40625C2.78076 2.15625 3.15576 1.9375 3.59326 1.78125L3.78076 0.84375C3.84326 0.5625 4.06201 0.34375 4.34326 0.3125C4.56201 0.28125 4.78076 0.25 4.99951 0.25C5.18701 0.25 5.40576 0.28125 5.62451 0.3125C5.90576 0.34375 6.15576 0.5625 6.21826 0.875L6.40576 1.78125C6.81201 1.90625 7.18701 2.15625 7.53076 2.40625L8.40576 2.125C8.68701 2.03125 8.99951 2.125 9.18701 2.34375C9.28076 2.5 9.40576 2.65625 9.49951 2.8125L9.59326 2.96875C9.65576 3.125 9.74951 3.28125 9.81201 3.46875C9.93701 3.75 9.84326 4.03125 9.62451 4.25ZM6.49951 5.5C6.49951 4.6875 5.81201 4 4.99951 4C4.15576 4 3.49951 4.6875 3.49951 5.5C3.49951 6.34375 4.15576 7 4.99951 7C5.81201 7 6.49951 6.34375 6.49951 5.5ZM15.7495 15.6562L15.1558 14.9688C14.937 15 14.7183 15 14.4995 15C14.2808 15 14.062 15 13.8433 14.9688L13.2183 15.6562C13.0308 15.875 12.7183 15.9688 12.437 15.8438C12.2808 15.7812 12.0933 15.6875 11.937 15.5938L11.7808 15.5C11.6245 15.4062 11.4683 15.3125 11.312 15.1875C11.0933 15.0312 10.9995 14.7188 11.0933 14.4375L11.4058 13.5625C11.1245 13.2188 10.9058 12.8438 10.7495 12.4062L9.84326 12.2188C9.53076 12.1562 9.31201 11.9375 9.28076 11.6562C9.24951 11.4375 9.24951 11.2188 9.24951 11C9.24951 10.7812 9.24951 10.5938 9.28076 10.375C9.31201 10.0938 9.53076 9.84375 9.84326 9.78125L10.7495 9.59375C10.9058 9.1875 11.1245 8.8125 11.4058 8.46875L11.0933 7.59375C10.9995 7.3125 11.0933 7 11.312 6.8125C11.4683 6.71875 11.6245 6.59375 11.7808 6.5L11.937 6.40625C12.0933 6.34375 12.2808 6.25 12.437 6.1875C12.7183 6.0625 13.0308 6.15625 13.2183 6.375L13.8433 7.0625C14.0308 7.03125 14.2495 7.03125 14.4995 7.03125C14.7183 7.03125 14.937 7.03125 15.1245 7.0625L15.7495 6.375C15.9683 6.15625 16.2808 6.0625 16.5308 6.1875C16.7183 6.25 16.8745 6.34375 17.0308 6.40625L17.187 6.5C17.3433 6.625 17.4995 6.71875 17.6558 6.8125C17.8745 7 17.9683 7.3125 17.8745 7.59375L17.5933 8.46875C17.8433 8.8125 18.062 9.1875 18.2183 9.59375L19.1558 9.8125C19.437 9.875 19.6558 10.0938 19.687 10.375C19.7183 10.5938 19.7495 10.8125 19.7495 11.0312C19.7495 11.2188 19.7183 11.4375 19.687 11.6562C19.6558 11.9375 19.437 12.1875 19.1558 12.2188L18.2183 12.4375C18.0933 12.8438 17.8433 13.2188 17.5933 13.5625L17.8745 14.4375C17.9683 14.7188 17.8745 15.0312 17.6558 15.2188C17.4995 15.3125 17.3433 15.4062 17.187 15.5L17.0308 15.625C16.8745 15.6875 16.7183 15.7812 16.5308 15.8438C16.2495 15.9688 15.9683 15.875 15.7495 15.6562ZM14.4995 12.5C15.312 12.5 15.9995 11.8438 15.9995 11C15.9995 10.1875 15.312 9.5 14.4995 9.5C13.6558 9.5 12.9995 10.1875 12.9995 11C12.9995 11.8438 13.6558 12.5 14.4995 12.5Z" fill="currentColor"/>
</symbol><symbol viewBox="0 0 24 24" fill="none" id="icon-share" xmlns="http://www.w3.org/2000/svg">
<path d="M18 8C19.6569 8 21 6.65685 21 5C21 3.34315 19.6569 2 18 2C16.3431 2 15 3.34315 15 5C15 6.65685 16.3431 8 18 8Z" stroke="currentColor" stroke-width="2" stroke-linecap="round" stroke-linejoin="round"/>
<path d="M6 15C7.65685 15 9 13.6569 9 12C9 10.3431 7.65685 9 6 9C4.34315 9 3 10.3431 3 12C3 13.6569 4.34315 15 6 15Z" stroke="currentColor" stroke-width="2" stroke-linecap="round" stroke-linejoin="round"/>
<path d="M18 22C19.6569 22 21 20.6569 21 19C21 17.3431 19.6569 16 18 16C16.3431 16 15 17.3431 15 19C15 20.6569 16.3431 22 18 22Z" stroke="currentColor" stroke-width="2" stroke-linecap="round" stroke-linejoin="round"/>
<path d="M8.58984 13.51L15.4198 17.49" stroke="currentColor" stroke-width="2" stroke-linecap="round" stroke-linejoin="round"/>
<path d="M15.4098 6.51001L8.58984 10.49" stroke="currentColor" stroke-width="2" stroke-linecap="round" stroke-linejoin="round"/>
</symbol><symbol viewBox="0 0 16 16" fill="none" id="icon-sort" xmlns="http://www.w3.org/2000/svg">
<path d="M14.0003 10.6667L11.3337 13.3334L8.66699 10.6667" stroke="currentColor" stroke-width="1.2" stroke-linecap="round" stroke-linejoin="round"/>
<path d="M11.333 13.3334V2.66669" stroke="currentColor" stroke-width="1.2" stroke-linecap="round" stroke-linejoin="round"/>
<path d="M2 5.33335L4.66667 2.66669L7.33333 5.33335" stroke="currentColor" stroke-width="1.2" stroke-linecap="round" stroke-linejoin="round"/>
<path d="M4.66699 2.66669V13.3334" stroke="currentColor" stroke-width="1.2" stroke-linecap="round" stroke-linejoin="round"/>
</symbol><symbol viewBox="0 0 16 16" fill="none" id="icon-tel" xmlns="http://www.w3.org/2000/svg">
<g clip-path="url(#ayclip0_4001_337)">
<path d="M9.2215 11.0453C9.35918 11.1086 9.5143 11.123 9.66129 11.0863C9.80828 11.0496 9.93839 10.9639 10.0302 10.8433L10.2668 10.5333C10.391 10.3677 10.5521 10.2333 10.7372 10.1408C10.9224 10.0482 11.1265 10 11.3335 10H13.3335C13.6871 10 14.0263 10.1405 14.2763 10.3905C14.5264 10.6406 14.6668 10.9797 14.6668 11.3333V13.3333C14.6668 13.687 14.5264 14.0261 14.2763 14.2761C14.0263 14.5262 13.6871 14.6667 13.3335 14.6667C10.1509 14.6667 7.09865 13.4024 4.84821 11.1519C2.59778 8.90151 1.3335 5.84926 1.3335 2.66667C1.3335 2.31304 1.47397 1.97391 1.72402 1.72386C1.97407 1.47381 2.31321 1.33333 2.66683 1.33333H4.66683C5.02045 1.33333 5.35959 1.47381 5.60964 1.72386C5.85969 1.97391 6.00016 2.31304 6.00016 2.66667V4.66667C6.00016 4.87366 5.95197 5.07781 5.8594 5.26295C5.76683 5.44809 5.63242 5.60914 5.46683 5.73333L5.15483 5.96733C5.03244 6.06078 4.94618 6.19372 4.91069 6.34357C4.8752 6.49341 4.89268 6.65092 4.96016 6.78933C5.87128 8.63991 7.36978 10.1365 9.2215 11.0453Z" stroke="currentColor" stroke-width="1.5" stroke-linecap="round" stroke-linejoin="round"/>
</g>
<defs>
<clipPath id="ayclip0_4001_337">
<rect width="16" height="16" fill="currentColor"/>
</clipPath>
</defs>
</symbol><symbol viewBox="0 0 40 40" fill="none" id="icon-tg" xmlns="http://www.w3.org/2000/svg">
<path d="M20.0002 3.3335C10.8002 3.3335 3.3335 10.8002 3.3335 20.0002C3.3335 29.2002 10.8002 36.6668 20.0002 36.6668C29.2002 36.6668 36.6668 29.2002 36.6668 20.0002C36.6668 10.8002 29.2002 3.3335 20.0002 3.3335ZM27.7335 14.6668C27.4835 17.3002 26.4002 23.7002 25.8502 26.6502C25.6168 27.9002 25.1502 28.3168 24.7168 28.3668C23.7502 28.4502 23.0168 27.7335 22.0835 27.1168C20.6168 26.1502 19.7835 25.5502 18.3668 24.6168C16.7168 23.5335 17.7835 22.9335 18.7335 21.9668C18.9835 21.7168 23.2502 17.8335 23.3335 17.4835C23.3451 17.4305 23.3435 17.3754 23.329 17.3232C23.3145 17.2709 23.2874 17.2229 23.2502 17.1835C23.1502 17.1002 23.0168 17.1335 22.9002 17.1502C22.7502 17.1835 20.4168 18.7335 15.8668 21.8002C15.2002 22.2502 14.6002 22.4835 14.0668 22.4668C13.4668 22.4502 12.3335 22.1335 11.4835 21.8502C10.4335 21.5168 9.61683 21.3335 9.6835 20.7502C9.71683 20.4502 10.1335 20.1502 10.9168 19.8335C15.7835 17.7168 19.0168 16.3168 20.6335 15.6502C25.2668 13.7168 26.2168 13.3835 26.8502 13.3835C26.9835 13.3835 27.3002 13.4168 27.5002 13.5835C27.6668 13.7168 27.7168 13.9002 27.7335 14.0335C27.7168 14.1335 27.7502 14.4335 27.7335 14.6668Z" fill="currentColor"/>
</symbol><symbol viewBox="0 0 20 20" fill="none" id="icon-trash" xmlns="http://www.w3.org/2000/svg">
<path d="M2.5 5H17.5" stroke="currentColor" stroke-width="2" stroke-linecap="round" stroke-linejoin="round"/>
<path d="M15.8327 5V16.6667C15.8327 17.5 14.9993 18.3333 14.166 18.3333H5.83268C4.99935 18.3333 4.16602 17.5 4.16602 16.6667V5" stroke="currentColor" stroke-width="2" stroke-linecap="round" stroke-linejoin="round"/>
<path d="M6.66602 4.99999V3.33332C6.66602 2.49999 7.49935 1.66666 8.33268 1.66666H11.666C12.4993 1.66666 13.3327 2.49999 13.3327 3.33332V4.99999" stroke="currentColor" stroke-width="2" stroke-linecap="round" stroke-linejoin="round"/>
</symbol><symbol viewBox="0 0 40 40" fill="none" id="icon-vk" xmlns="http://www.w3.org/2000/svg">
<path d="M7.1 7.1C5 9.22 5 12.61 5 19.4V20.6C5 27.38 5 30.77 7.1 32.9C9.22 35 12.61 35 19.4 35H20.6C27.38 35 30.77 35 32.9 32.9C35 30.78 35 27.39 35 20.6V19.4C35 12.62 35 9.23 32.9 7.1C30.78 5 27.39 5 20.6 5H19.4C12.62 5 9.23 5 7.1 7.1ZM10.06 14.13H13.5C13.61 19.85 16.13 22.27 18.13 22.77V14.13H21.36V19.06C23.33 18.85 25.41 16.6 26.11 14.12H29.33C29.0673 15.4037 28.5427 16.6194 27.7891 17.6914C27.0355 18.7633 26.069 19.6683 24.95 20.35C26.1991 20.9714 27.3021 21.8507 28.1864 22.9298C29.0707 24.0089 29.7161 25.2632 30.08 26.61H26.53C25.77 24.24 23.87 22.4 21.36 22.15V26.61H20.96C14.12 26.61 10.22 21.93 10.06 14.13Z" fill="currentColor"/>
</symbol><symbol viewBox="0 0 32 32" fill="none" id="icon-whats" xmlns="http://www.w3.org/2000/svg">
<path d="M16.0013 2.66669C23.3653 2.66669 29.3347 8.63602 29.3347 16C29.3347 23.364 23.3653 29.3334 16.0013 29.3334C13.645 29.3374 11.3301 28.7138 9.29466 27.5267L2.67332 29.3334L4.47599 22.7094C3.28793 20.6733 2.66386 18.3574 2.66799 16C2.66799 8.63602 8.63732 2.66669 16.0013 2.66669ZM11.4573 9.73335L11.1907 9.74402C11.0182 9.7559 10.8498 9.80118 10.6947 9.87735C10.5501 9.95937 10.4181 10.0618 10.3027 10.1814C10.1427 10.332 10.052 10.4627 9.95466 10.5894C9.46148 11.2306 9.19595 12.0178 9.19999 12.8267C9.20266 13.48 9.37332 14.116 9.63999 14.7107C10.1853 15.9134 11.0827 17.1867 12.2667 18.3667C12.552 18.6507 12.832 18.936 13.1333 19.2014C14.6046 20.4966 16.3577 21.4306 18.2533 21.9294L19.0107 22.0454C19.2573 22.0587 19.504 22.04 19.752 22.028C20.1402 22.0075 20.5193 21.9024 20.8627 21.72C21.0371 21.6298 21.2075 21.5319 21.3733 21.4267C21.3733 21.4267 21.4298 21.3885 21.54 21.3067C21.72 21.1734 21.8307 21.0787 21.98 20.9227C22.092 20.8071 22.1853 20.6729 22.26 20.52C22.364 20.3027 22.468 19.888 22.5107 19.5427C22.5427 19.2787 22.5333 19.1347 22.5293 19.0454C22.524 18.9027 22.4053 18.7547 22.276 18.692L21.5 18.344C21.5 18.344 20.34 17.8387 19.6307 17.516C19.5564 17.4837 19.4769 17.4652 19.396 17.4614C19.3048 17.4518 19.2125 17.462 19.1256 17.4912C19.0386 17.5204 18.959 17.568 18.892 17.6307C18.8853 17.628 18.796 17.704 17.832 18.872C17.7767 18.9464 17.7004 19.0026 17.6131 19.0334C17.5257 19.0643 17.4311 19.0685 17.3413 19.0454C17.2544 19.0222 17.1693 18.9928 17.0867 18.9574C16.9213 18.888 16.864 18.8614 16.7507 18.8134C15.9852 18.4799 15.2766 18.0287 14.6507 17.476C14.4827 17.3294 14.3267 17.1694 14.1667 17.0147C13.6421 16.5123 13.185 15.944 12.8067 15.324L12.728 15.1974C12.6723 15.1118 12.6267 15.02 12.592 14.924C12.5413 14.728 12.6733 14.5707 12.6733 14.5707C12.6733 14.5707 12.9973 14.216 13.148 14.024C13.2947 13.8374 13.4187 13.656 13.4987 13.5267C13.656 13.2734 13.7053 13.0134 13.6227 12.812C13.2493 11.9 12.8635 10.9929 12.4653 10.0907C12.3867 9.91202 12.1533 9.78402 11.9413 9.75869C11.8693 9.7498 11.7973 9.74269 11.7253 9.73735C11.5463 9.72709 11.3668 9.72887 11.188 9.74269L11.4573 9.73335Z" fill="currentColor"/>
</symbol><symbol viewBox="0 0 40 40" fill="none" id="icon-yt" xmlns="http://www.w3.org/2000/svg">
<path d="M16.6668 25.0002L25.3168 20.0002L16.6668 15.0002V25.0002ZM35.9335 11.9502C36.1502 12.7335 36.3002 13.7835 36.4002 15.1168C36.5168 16.4502 36.5668 17.6002 36.5668 18.6002L36.6668 20.0002C36.6668 23.6502 36.4002 26.3335 35.9335 28.0502C35.5168 29.5502 34.5502 30.5168 33.0502 30.9335C32.2668 31.1502 30.8335 31.3002 28.6335 31.4002C26.4668 31.5168 24.4835 31.5668 22.6502 31.5668L20.0002 31.6668C13.0168 31.6668 8.66683 31.4002 6.95016 30.9335C5.45016 30.5168 4.4835 29.5502 4.06683 28.0502C3.85016 27.2668 3.70016 26.2168 3.60016 24.8835C3.4835 23.5502 3.4335 22.4002 3.4335 21.4002L3.3335 20.0002C3.3335 16.3502 3.60016 13.6668 4.06683 11.9502C4.4835 10.4502 5.45016 9.4835 6.95016 9.06683C7.7335 8.85016 9.16683 8.70016 11.3668 8.60016C13.5335 8.4835 15.5168 8.4335 17.3502 8.4335L20.0002 8.3335C26.9835 8.3335 31.3335 8.60016 33.0502 9.06683C34.5502 9.4835 35.5168 10.4502 35.9335 11.9502Z" fill="currentColor"/>
</symbol></svg>